<svg xmlns="http://www.w3.org/2000/svg" viewBox="0 0 750 500"><g id="freepik--background-simple--inject-2"><g><path d="M725.71,279.87c4.21-83.11-41.86-159.85-114.16-193.71-25.26-11.83-53.94-21.79-80.19-22.73-67.52-2.42-151.92,29.05-206.4,40.34-54.48,11.3-136.58-34.69-199.5-17.75C62.54,102.96-7.22,200.97,19.21,307.08c26.43,106.12,93.88,155.72,162.17,162.17,68.29,6.45,147.36-58.72,203.02-49.53,55.66,9.19,72.54,58.41,181.5,55.99,108.96-2.42,153.46-100.04,159.6-192.02,.09-1.28,.16-2.55,.22-3.82Z" style="fill:#042033;"></path><path d="M725.71,279.87c4.21-83.11-41.86-159.85-114.16-193.71-25.26-11.83-53.94-21.79-80.19-22.73-67.52-2.42-151.92,29.05-206.4,40.34-54.48,11.3-136.58-34.69-199.5-17.75C62.54,102.96-7.22,200.97,19.21,307.08c26.43,106.12,93.88,155.72,162.17,162.17,68.29,6.45,147.36-58.72,203.02-49.53,55.66,9.19,72.54,58.41,181.5,55.99,108.96-2.42,153.46-100.04,159.6-192.02,.09-1.28,.16-2.55,.22-3.82Z" style="fill:#fff; opacity:.8;"></path></g></g><g id="freepik--Grass--inject-2"><polygon points="723.72 460.94 723.72 450.1 721.03 450.83 706.28 446.83 691.53 450.83 676.77 446.83 662.02 450.83 647.27 446.83 632.51 450.83 617.76 446.83 603.01 450.83 588.25 446.83 573.5 450.83 558.75 446.83 543.99 450.83 529.24 446.83 514.48 450.83 499.73 446.83 484.97 450.83 470.22 446.83 455.46 450.83 440.7 446.83 425.95 450.83 411.19 446.83 396.43 450.83 381.68 446.83 366.92 450.83 352.16 446.83 337.41 450.83 322.65 446.83 307.89 450.83 293.13 446.83 278.37 450.83 263.62 446.83 248.86 450.83 234.1 446.83 219.34 450.83 204.58 446.83 189.83 450.83 175.07 446.83 160.31 450.83 145.55 446.83 130.79 450.83 116.04 446.83 101.28 450.83 86.52 446.83 71.75 450.83 57 446.83 42.23 450.83 27.48 446.83 21.3 448.5 21.3 460.94 723.72 460.94" style="fill:#042033;"></polygon></g><g id="freepik--Clouds--inject-2"><g><g><path d="M81.08,95.49h65.64s1.35-4.96-2.26-7.22c-3.61-2.26-4.51,.45-8.57-.45,0,0-10.83-16.69-19.4-15.79-1.36,.14-2.5,.42-3.46,.82" style="fill:none; stroke:#263238; stroke-linecap:round; stroke-linejoin:round;"></path><path d="M109.27,75.9c-1.67,2.43-2.31,5.58-4.06,8.32-3.16,4.96-8.12-2.26-13.08-.45-4.96,1.8-3.16,4.96-6.32,6.32s-10.38-5.86-13.08-3.61c-2.71,2.26-3.61,5.86-5.41,6.77-1.8,.9-5.41-2.26-7.22,0l-1.8,2.26h18.33" style="fill:none; stroke:#263238; stroke-linecap:round; stroke-linejoin:round;"></path></g><g><path d="M635.4,110.21c-1.59-.62-3.25-1.03-4.91-.42-4.96,1.8-3.16,4.96-6.32,6.32s-10.38-5.86-13.08-3.61c-2.71,2.26-3.61,5.86-5.41,6.77s-5.41-2.26-7.22,0l-1.8,2.26h52.3" style="fill:none; stroke:#263238; stroke-linecap:round; stroke-linejoin:round;"></path><path d="M664.16,102.14c-3-2.54-6.3-4.4-9.31-4.09-8.57,.9-8.12,7.22-11.28,12.18-.53,.83-1.1,1.31-1.72,1.56" style="fill:none; stroke:#263238; stroke-linecap:round; stroke-linejoin:round;"></path><path d="M653.96,121.51h31.11s1.35-4.96-2.26-7.22c-3.61-2.26-4.51,.45-8.57-.45,0,0-2.76-4.26-6.6-8.36" style="fill:none; stroke:#263238; stroke-linecap:round; stroke-linejoin:round;"></path></g><g><path d="M251.33,46.03c-2.18-.62-4.42-.82-6.65-.01-8.94,3.25-5.69,8.94-11.37,11.37-5.69,2.44-18.68-10.56-23.56-6.5-4.87,4.06-6.5,10.56-9.75,12.18-3.25,1.62-9.75-4.06-13,0l-3.25,4.06h95.95" style="fill:none; stroke:#263238; stroke-linecap:round; stroke-linejoin:round;"></path><path d="M285.27,67.14h57.7s2.44-8.94-4.06-13c-6.5-4.06-8.12,.81-15.43-.81,0,0-19.5-30.06-34.93-28.43-15.43,1.62-14.62,13-20.31,21.93-3.15,4.95-7.29,3.17-11.88,1.15" style="fill:none; stroke:#263238; stroke-linecap:round; stroke-linejoin:round;"></path></g></g></g><g id="freepik--City--inject-2"><g><polyline points="133.32 230.97 133.32 124.78 122.06 124.78 122.06 113.83 88.27 113.83 88.27 122.59 79.42 122.59 79.42 304.32 55.28 304.32 55.28 336.07 40 336.07" style="fill:none; stroke:#263238; stroke-miterlimit:10;"></polyline><polyline points="242.73 245.2 242.73 163.09 219.4 163.09 219.4 182.8 208.14 182.8 208.14 154.34 183.2 154.34 183.2 276.95 162.28 276.95 162.28 320.74 145.39 320.74 145.39 252.87 133.32 252.87 133.32 238.63" style="fill:none; stroke:#263238; stroke-miterlimit:10;"></polyline><polyline points="330.42 190.46 330.42 336.07 316.75 336.07 316.75 250.68 297.44 250.68 297.44 322.93 242.73 322.93 242.73 258.34" style="fill:none; stroke:#263238; stroke-miterlimit:10;"></polyline><polyline points="373.06 297.75 373.06 118.21 330.42 118.21 330.42 178.42" style="fill:none; stroke:#263238; stroke-miterlimit:10;"></polyline><polyline points="455.92 245.2 455.92 266 443.86 266 443.86 171.85 395.59 171.85 395.59 317.46 373.06 317.46 373.06 303.23" style="fill:none; stroke:#263238; stroke-miterlimit:10;"></polyline><polyline points="508.22 336.07 490.52 336.07 490.52 200.32 455.92 200.32 455.92 234.25" style="fill:none; stroke:#263238; stroke-miterlimit:10;"></polyline></g></g><g id="freepik--Trees--inject-2"><g><path d="M735.38,283.54c15.93,80.77-34.12,47.13-76.2,47.13s-95.41,27.39-76.2-47.13c10.98-42.58,34.12-69.2,76.2-69.2s69.48,35.14,76.2,69.2Z" style="fill:#042033;"></path><path d="M735.38,283.54c15.93,80.77-34.12,47.13-76.2,47.13s-95.41,27.39-76.2-47.13c10.98-42.58,34.12-69.2,76.2-69.2s69.48,35.14,76.2,69.2Z" style="fill:#fff; opacity:.3;"></path><polygon points="635.17 323.34 655.69 339 653.59 460.02 665.99 460.02 663.61 313.32 692.96 281.04 663.25 306.42 662.17 258.35 658.93 291.3 651.29 285.76 634.63 262.13 645.34 283.61 610.86 269.69 646 289.55 657.56 297.56 656.23 332.52 635.17 323.34" style="fill:#a1a1a1;"></polygon><g><path d="M646.74,244.87s-1.12,5.2,1.21,9.52c2.34,4.32,5.53,7.19,5.53,7.19,0,0,2.32-8.21-6.74-16.71Z" style="fill:#fff;"></path><path d="M603.12,290.84s4.01,3.5,8.92,3.54c4.91,.04,8.96-1.37,8.96-1.37,0,0-6.07-6-17.88-2.17Z" style="fill:#fff;"></path><path d="M597.01,312.41s4.87,2.15,9.57,.73c4.7-1.42,8.15-3.97,8.15-3.97,0,0-7.58-3.93-17.72,3.23Z" style="fill:#fff;"></path><path d="M626.1,314.65s5.32-.07,9.01-3.31c3.68-3.24,5.76-7,5.76-7,0,0-8.53-.42-14.77,10.31Z" style="fill:#fff;"></path><path d="M613.82,250.25s1.21,5.19,5.16,8.09c3.96,2.91,8.07,4.13,8.07,4.13,0,0-1.41-8.42-13.23-12.23Z" style="fill:#fff;"></path><path d="M700.62,246.41s-5.27,.75-8.51,4.43c-3.24,3.69-4.83,7.67-4.83,7.67,0,0,8.51-.67,13.34-12.11Z" style="fill:#fff;"></path><path d="M718.89,273.8s-5.21-1.12-9.52,1.22c-4.32,2.34-7.18,5.54-7.18,5.54,0,0,8.22,2.31,16.7-6.76Z" style="fill:#fff;"></path><path d="M717.1,304.92s-3.75-3.78-8.65-4.17c-4.89-.39-9.04,.72-9.04,.72,0,0,5.63,6.42,17.68,3.44Z" style="fill:#fff;"></path><path d="M696.72,321.62s-2.16-4.87-6.59-6.98c-4.43-2.11-8.7-2.54-8.7-2.54,0,0,2.97,8,15.3,9.52Z" style="fill:#fff;"></path><path d="M685.99,271.13s-5.27,.75-8.51,4.43c-3.24,3.69-4.83,7.67-4.83,7.67,0,0,8.51-.67,13.34-12.11Z" style="fill:#fff;"></path><path d="M599.62,264.26s2.35,4.78,6.86,6.72c4.51,1.94,8.79,2.21,8.79,2.21,0,0-3.28-7.88-15.65-8.92Z" style="fill:#fff;"></path><path d="M674.79,239.08s-4.27,3.18-5.35,7.97c-1.08,4.79-.56,9.05-.56,9.05,0,0,7.15-4.67,5.9-17.02Z" style="fill:#fff;"></path><path d="M658.69,224.01s-2.42,4.74-1.27,9.51c1.15,4.77,3.5,8.36,3.5,8.36,0,0,4.35-7.34-2.22-17.88Z" style="fill:#fff;"></path><path d="M623.85,229.08s0,5.32,3.19,9.05c3.19,3.73,6.92,5.86,6.92,5.86,0,0,.53-8.52-10.12-14.91Z" style="fill:#fff;"></path></g></g><g><path d="M179.75,283.54c15.93,80.77-34.12,47.13-76.2,47.13s-95.41,27.39-76.2-47.13c10.98-42.58,34.12-69.2,76.2-69.2s69.48,35.14,76.2,69.2Z" style="fill:#042033;"></path><path d="M179.75,283.54c15.93,80.77-34.12,47.13-76.2,47.13s-95.41,27.39-76.2-47.13c10.98-42.58,34.12-69.2,76.2-69.2s69.48,35.14,76.2,69.2Z" style="fill:#fff; opacity:.3;"></path><polygon points="79.53 323.34 100.06 339 97.96 460.02 110.36 460.02 107.97 313.32 137.32 281.04 107.62 306.42 106.54 258.35 103.3 291.3 95.66 285.76 78.99 262.13 89.71 283.61 55.23 269.69 90.37 289.55 101.93 297.56 100.6 332.52 79.53 323.34" style="fill:#a1a1a1;"></polygon><g><path d="M91.11,244.87s-1.12,5.2,1.21,9.52c2.34,4.32,5.53,7.19,5.53,7.19,0,0,2.32-8.21-6.74-16.71Z" style="fill:#fff;"></path><path d="M47.49,290.84s4.01,3.5,8.92,3.54c4.91,.04,8.96-1.37,8.96-1.37,0,0-6.07-6-17.88-2.17Z" style="fill:#fff;"></path><path d="M41.37,312.41s4.87,2.15,9.57,.73c4.7-1.42,8.15-3.97,8.15-3.97,0,0-7.58-3.93-17.72,3.23Z" style="fill:#fff;"></path><path d="M70.46,314.65s5.32-.07,9.01-3.31c3.68-3.24,5.76-7,5.76-7,0,0-8.53-.42-14.77,10.31Z" style="fill:#fff;"></path><path d="M58.19,250.25s1.21,5.19,5.16,8.09c3.96,2.91,8.07,4.13,8.07,4.13,0,0-1.41-8.42-13.23-12.23Z" style="fill:#fff;"></path><path d="M144.99,246.41s-5.27,.75-8.51,4.43c-3.24,3.69-4.83,7.67-4.83,7.67,0,0,8.51-.67,13.34-12.11Z" style="fill:#fff;"></path><path d="M163.26,273.8s-5.21-1.12-9.52,1.22c-4.32,2.34-7.18,5.54-7.18,5.54,0,0,8.22,2.31,16.7-6.76Z" style="fill:#fff;"></path><path d="M161.47,304.92s-3.75-3.78-8.65-4.17c-4.89-.39-9.04,.72-9.04,.72,0,0,5.63,6.42,17.68,3.44Z" style="fill:#fff;"></path><path d="M141.08,321.62s-2.16-4.87-6.59-6.98c-4.43-2.11-8.7-2.54-8.7-2.54,0,0,2.97,8,15.3,9.52Z" style="fill:#fff;"></path><path d="M130.35,271.13s-5.27,.75-8.51,4.43c-3.24,3.69-4.83,7.67-4.83,7.67,0,0,8.51-.67,13.34-12.11Z" style="fill:#fff;"></path><path d="M43.98,264.26s2.35,4.78,6.86,6.72c4.51,1.94,8.79,2.21,8.79,2.21,0,0-3.28-7.88-15.65-8.92Z" style="fill:#fff;"></path><path d="M119.15,239.08s-4.27,3.18-5.35,7.97-.56,9.05-.56,9.05c0,0,7.15-4.67,5.9-17.02Z" style="fill:#fff;"></path><path d="M103.06,224.01s-2.42,4.74-1.27,9.51c1.15,4.77,3.5,8.36,3.5,8.36,0,0,4.35-7.34-2.22-17.88Z" style="fill:#fff;"></path><path d="M68.21,229.08s0,5.32,3.19,9.05c3.19,3.73,6.92,5.86,6.92,5.86,0,0,.53-8.52-10.12-14.91Z" style="fill:#fff;"></path></g></g><g><path d="M641.54,183.74c20.57,104.29-44.05,60.85-98.39,60.85s-123.2,35.37-98.39-60.85c14.17-54.98,44.05-89.36,98.39-89.36s89.72,45.37,98.39,89.36Z" style="fill:#042033;"></path><path d="M641.54,183.74c20.57,104.29-44.05,60.85-98.39,60.85s-123.2,35.37-98.39-60.85c14.17-54.98,44.05-89.36,98.39-89.36s89.72,45.37,98.39,89.36Z" style="fill:#fff; opacity:.3;"></path><polygon points="512.13 235.12 538.63 255.35 535.92 459.89 551.93 459.89 548.86 222.18 586.75 180.5 548.4 213.27 547 151.21 542.82 193.75 532.96 186.59 511.44 156.09 525.27 183.82 480.75 165.85 526.12 191.49 541.05 201.84 539.33 246.98 512.13 235.12" style="fill:#a1a1a1;"></polygon><g><path d="M527.08,133.8s-1.45,6.72,1.56,12.29c3.02,5.58,7.14,9.28,7.14,9.28,0,0,2.99-10.61-8.7-21.57Z" style="fill:#fff;"></path><path d="M470.75,193.16s5.18,4.52,11.52,4.57c6.34,.05,11.57-1.77,11.57-1.77,0,0-7.84-7.75-23.09-2.8Z" style="fill:#fff;"></path><path d="M462.86,221.01s6.29,2.78,12.36,.95c6.07-1.83,10.53-5.12,10.53-5.12,0,0-9.78-5.07-22.89,4.17Z" style="fill:#fff;"></path><path d="M500.42,223.91s6.87-.09,11.63-4.28c4.76-4.19,7.44-9.04,7.44-9.04,0,0-11.01-.54-19.07,13.32Z" style="fill:#fff;"></path><path d="M484.58,140.75s1.56,6.7,6.67,10.45c5.11,3.75,10.42,5.34,10.42,5.34,0,0-1.83-10.87-17.09-15.79Z" style="fill:#fff;"></path><path d="M596.65,135.79s-6.81,.96-10.99,5.72c-4.19,4.76-6.23,9.91-6.23,9.91,0,0,10.99-.86,17.23-15.63Z" style="fill:#fff;"></path><path d="M620.24,171.16s-6.72-1.45-12.29,1.58c-5.57,3.02-9.27,7.15-9.27,7.15,0,0,10.61,2.99,21.57-8.72Z" style="fill:#fff;"></path><path d="M617.93,211.34s-4.85-4.88-11.16-5.38c-6.32-.51-11.67,.94-11.67,.94,0,0,7.27,8.29,22.83,4.45Z" style="fill:#fff;"></path><path d="M591.61,232.9s-2.79-6.28-8.51-9.01c-5.72-2.72-11.24-3.28-11.24-3.28,0,0,3.84,10.33,19.75,12.29Z" style="fill:#fff;"></path><path d="M577.75,167.7s-6.81,.96-10.99,5.72c-4.19,4.76-6.23,9.91-6.23,9.91,0,0,10.99-.86,17.23-15.63Z" style="fill:#fff;"></path><path d="M466.23,158.84s3.03,6.17,8.85,8.67c5.82,2.5,11.36,2.85,11.36,2.85,0,0-4.23-10.18-20.21-11.52Z" style="fill:#fff;"></path><path d="M563.29,126.32s-5.51,4.11-6.9,10.29c-1.39,6.18-.72,11.69-.72,11.69,0,0,9.23-6.03,7.62-21.98Z" style="fill:#fff;"></path><path d="M542.51,106.87s-3.13,6.12-1.65,12.28c1.48,6.16,4.52,10.8,4.52,10.8,0,0,5.62-9.48-2.87-23.09Z" style="fill:#fff;"></path><path d="M497.52,113.41s0,6.87,4.13,11.69c4.12,4.81,8.94,7.56,8.94,7.56,0,0,.69-11-13.06-19.25Z" style="fill:#fff;"></path></g></g></g><g id="freepik--Plants--inject-2"><g><g><polyline points="709.26 418.51 723.49 418.51 723.49 427.34 709.26 427.34" style="fill:#fff; stroke:#263238; stroke-miterlimit:10;"></polyline><rect x="263.45" y="418.51" width="213.66" height="8.83" style="fill:#fff; stroke:#263238; stroke-miterlimit:10;"></rect><polyline points="31.29 418.51 20.82 418.51 20.82 427.34 31.29 427.34" style="fill:#fff; stroke:#263238; stroke-miterlimit:10;"></polyline><rect x="40.54" y="418.51" width="213.66" height="8.83" style="fill:#fff; stroke:#263238; stroke-miterlimit:10;"></rect><rect x="486.36" y="418.51" width="213.65" height="8.83" style="fill:#fff; stroke:#263238; stroke-miterlimit:10;"></rect></g><g><polyline points="709.26 394.21 723.49 394.21 723.49 403.04 709.26 403.04" style="fill:#fff; stroke:#263238; stroke-miterlimit:10;"></polyline><rect x="263.45" y="394.21" width="213.66" height="8.83" style="fill:#fff; stroke:#263238; stroke-miterlimit:10;"></rect><polyline points="31.29 394.21 20.82 394.21 20.82 403.04 31.29 403.04" style="fill:#fff; stroke:#263238; stroke-miterlimit:10;"></polyline><rect x="40.54" y="394.21" width="213.66" height="8.83" style="fill:#fff; stroke:#263238; stroke-miterlimit:10;"></rect><rect x="486.36" y="394.21" width="213.65" height="8.83" style="fill:#fff; stroke:#263238; stroke-miterlimit:10;"></rect></g><rect x="700.01" y="387.86" width="9.25" height="71.9" style="fill:#fff; stroke:#263238; stroke-miterlimit:10;"></rect><rect x="477.11" y="387.86" width="9.25" height="71.9" style="fill:#fff; stroke:#263238; stroke-miterlimit:10;"></rect><rect x="254.2" y="387.86" width="9.25" height="71.9" style="fill:#fff; stroke:#263238; stroke-miterlimit:10;"></rect><rect x="31.29" y="387.86" width="9.25" height="71.9" style="fill:#fff; stroke:#263238; stroke-miterlimit:10;"></rect></g></g><g id="freepik--Car--inject-2"><g><path d="M68.05,417.93s13.73,9.15,14.95,9.46,16.17,0,16.17,0v-4.27l130.55-6.71,389.51-4.88s.61-22.27-9.76-39.96c-10.37-17.69-29.28-31.11-50.02-32.94-20.74-1.83-46.06,4.58-58.56,15.56-12.51,10.98-24.1,53.99-24.1,53.99l-239.44,3.05s-6.41-34.47-28.98-53.07c-22.57-18.61-54.29-22.88-82.36-14.34-28.06,8.54-36.3,63.44-36.3,63.44l-21.66,10.68Z" style="fill:#263238; stroke:#263238; stroke-miterlimit:10;"></path><path d="M684.63,356.22c-4.16-8.32-4.99-23.29-4.99-29.11s.83-13.72,.83-13.72c0,0,4.16-5.82,0-13.72-4.16-7.9-8.32-8.73-8.32-8.73l-34.1-36.18s10.4-6.24,9.56-7.9c-.83-1.66-3.74-1.66-3.74-1.66l-49.9-2.91s-76.51-2.91-117.26-3.74c-40.75-.83-121-1.66-121-1.66,0,0-9.15,.42-16.22,2.91-7.07,2.49-109.78,58.21-116.01,60.29-6.24,2.08-88.15,5.41-105.62,8.32-17.46,2.91-34.93,9.98-39.09,14.97-4.16,4.99-14.97,43.24-15.8,48.65-.83,5.41-1.66,38.26-1.25,41.58,.42,3.33,4.16,4.99,4.16,4.99h30.77s.44-2.19,1.26-5.71c-.05-1.07-.08-2.15-.08-3.24,0-35.46,28.74-64.2,64.2-64.2s64.2,28.74,64.2,64.2c0,3.25-.25,6.45-.71,9.57,.02,.13,.04,.21,.04,.21H484.2s.54-3.84,1.88-9.66c0-.04,0-.08,0-.12,0-35.7,28.94-64.65,64.65-64.65s64.65,28.94,64.65,64.65c0,1.33-.05,2.64-.13,3.95,6.46-.09,35.76-.84,52.34-7.47,18.71-7.48,22.87-13.31,22.87-24.95s-1.66-16.63-5.82-24.95Z" style="fill:#042033; stroke:#263238; stroke-miterlimit:10;"></path><path d="M192.86,329.96s154.11-6.94,239.49-12.49c85.38-5.55,115.93-7.64,115.93-7.64l-338.06,24.3-17.35-4.17Z" style="opacity:.24;"></path><path d="M690.43,379.33c0-.2,0-.39-.01-.58,0-.21-.01-.4-.02-.6,0-.19-.01-.39-.02-.58-.01-.31-.02-.61-.04-.91-.01-.28-.03-.56-.05-.83,0-.07,0-.14-.01-.2-.02-.32-.04-.64-.07-.95-.01-.13-.02-.26-.03-.39-.1-1.11-.22-2.17-.37-3.17-6.32,1.79-23.25,5.64-26.06,5.64-3.36,0-14.95,8.24-16.47,9.15-1.33,.8-17.17,1.82-21.29,2.08-4.65-16.19-14.37-30.22-27.35-40.27-2.29-1.92-4.68-3.66-7.18-5.11-.93-.54-1.98-1.1-3.13-1.67-11.16-6.12-23.98-9.61-37.61-9.61-38.74,0-70.9,28.13-77.2,65.08l-8.34,.49s-11.9-3.97-17.08-5.19c-5.19-1.22-161.36,4.27-168.68,4.27s-32.03,6.41-32.03,6.41l-11.3-.57c-3.92-37.44-35.58-66.63-74.06-66.63s-67.02,26.42-73.27,61.22c-1.66,5.42-2.42,9.02-2.42,9.02h-18.61l-5.68-17.31h0c0,.26-.02,.51-.03,.76v.05c0,.22-.02,.44-.02,.67-.01,.33-.02,.67-.03,1.01,0,.28-.02,.56-.03,.84,0,.25-.02,.5-.02,.75,0,.33-.02,.67-.03,1,0,.31-.02,.62-.03,.93,0,.25-.01,.49-.02,.74,0,.29-.02,.58-.02,.87v.29c-.01,.23-.02,.46-.02,.69,0,.21-.01,.42-.02,.64,0,.41-.02,.83-.03,1.23,0,.16,0,.32-.01,.48,0,.28-.01,.56-.02,.84,0,.07,0,.14,0,.21,0,.19,0,.37-.01,.56,0,.36-.01,.72-.02,1.08,0,.16,0,.33,0,.49,0,.41-.01,.82-.02,1.21v.38c-.01,.36-.02,.71-.02,1.05,0,.11,0,.22,0,.33,0,.37,0,.72-.01,1.07,0,.11,0,.22,0,.33,0,.16,0,.3,0,.46,0,.21,0,.43,0,.64v.22c0,.09,0,.18,0,.27,0,.27,0,.53,0,.78v.04c0,.19,0,.36,0,.55,0,.14,0,.29,0,.43v.21c0,.12,0,.22,0,.34,0,.17,0,.35,0,.51v.15c0,.27,0,.53,.02,.76h0c0,.24,.01,.45,.02,.65v.11c.01,.18,.02,.34,.03,.49v.07c.01,.14,.03,.26,.04,.36,.42,3.33,4.16,4.99,4.16,4.99h30.77s.44-2.19,1.26-5.71c-.05-1.07-.08-2.15-.08-3.24,0-35.46,28.74-64.2,64.2-64.2s64.2,28.74,64.2,64.2c0,3.25-.25,6.45-.71,9.57,.02,.13,.04,.21,.04,.21H484.2s.54-3.84,1.88-9.66c0-.04,0-.08,0-.12,0-35.7,28.94-64.65,64.65-64.65s64.65,28.94,64.65,64.65c0,1.33-.05,2.64-.13,3.95,2.27-.03,7.37-.14,13.73-.57h0c.69-.05,1.4-.1,2.12-.15,.08,0,.16-.01,.24-.02,1.49-.11,3.04-.24,4.63-.39h.07c.72-.08,1.46-.15,2.2-.22,.16-.02,.32-.03,.48-.05,.65-.07,1.3-.14,1.95-.22,.15-.02,.3-.03,.45-.05,1.57-.18,3.15-.39,4.74-.61,.21-.03,.42-.06,.63-.09,.59-.09,1.17-.17,1.76-.27,.23-.04,.46-.07,.68-.11,.67-.11,1.34-.22,2.01-.34,.11-.02,.22-.04,.33-.06,.77-.14,1.53-.28,2.29-.43,.2-.04,.4-.08,.61-.12,.56-.11,1.12-.23,1.67-.35,.25-.05,.49-.11,.73-.16,.55-.12,1.1-.25,1.65-.38,.19-.05,.39-.09,.58-.14,.72-.18,1.43-.36,2.14-.56,.14-.04,.28-.08,.42-.12,.56-.16,1.12-.32,1.66-.49,.22-.07,.44-.14,.65-.2,.48-.15,.96-.31,1.42-.47,.2-.07,.4-.14,.59-.2,.64-.23,1.28-.46,1.89-.71,18.71-7.48,22.87-13.31,22.87-24.95,0-.63,0-1.24-.02-1.83Z" style="fill:#525252; stroke:#263238; stroke-miterlimit:10;"></path><path d="M323.28,248.52h-1.24c-31.41,16.37-93.74,49.96-98.56,51.56-1.12,.37-4.66,.78-9.82,1.23,6.86,4.72,20.37,7.09,26.03,7.09s269.45-11.23,269.45-11.23c0,0,8.73-6.65,8.73-8.73s-34.1-39.92-34.1-39.92h-160.5Z" style="fill:#263238; stroke:#263238; stroke-miterlimit:10;"></path><path d="M319.7,249.75c-32.06,16.76-91.51,48.77-96.21,50.34-1.12,.37-4.66,.78-9.82,1.23,3.91,2.69,9.97,4.61,15.51,5.77l94.1-58.56-3.58,1.22Z" style="fill:#525252; stroke:#263238; stroke-miterlimit:10;"></path><path d="M339.5,252.68s-67.78,40.33-70.69,42.83-1.66,4.99,.83,5.82,108.53-2.49,108.53-2.49l7.07-45.74-45.74-.42Z" style="fill:#525252; stroke:#263238; stroke-miterlimit:10;"></path><polygon points="406.03 253.93 404.78 296.76 493.35 294.68 499.59 278.88 480.05 252.68 406.03 253.93" style="fill:#525252; stroke:#263238; stroke-miterlimit:10;"></polygon><path d="M284.24,285.26s-1.3,.78-7,2.33c-5.71,1.56-12.97,4.67-13.75,8.3s-.52,8.56,3.11,9.08,22.05,1.82,27.5-.78c5.45-2.59,4.67-7.78,3.89-12.19s-3.37-5.71-6.48-6.48-7.26-.26-7.26-.26Z" style="fill:#525252; stroke:#263238; stroke-miterlimit:10;"></path><ellipse cx="356.22" cy="314.57" rx="12.32" ry="3.37" style="fill:none; stroke:#263238; stroke-miterlimit:10;"></ellipse><ellipse cx="503.3" cy="309.12" rx="12.32" ry="3.37" style="fill:none; stroke:#263238; stroke-miterlimit:10;"></ellipse><path d="M526.62,280.51c6.12,6.81,10.67,12.57,10.86,14.8,.61,7.02-5.19,37.21-5.19,37.21" style="fill:none; stroke:#263238; stroke-miterlimit:10;"></path><path d="M493.25,246.5s15.74,15.08,28.44,28.65" style="fill:none; stroke:#263238; stroke-miterlimit:10;"></path><path d="M621.6,340.79c9.35-6.69,25.99-19.56,25.99-19.56" style="fill:none; stroke:#263238; stroke-miterlimit:10;"></path><path d="M601.23,346.55s11.9-1.22,14.34-1.83c.44-.11,1.75-.93,3.6-2.22" style="fill:none; stroke:#263238; stroke-miterlimit:10;"></path><line x1="387.99" y1="383.47" x2="387.41" y2="413.05" style="fill:none; stroke:#263238; stroke-miterlimit:10;"></line><line x1="389.28" y1="318.6" x2="388.08" y2="378.89" style="fill:none; stroke:#263238; stroke-miterlimit:10;"></line><line x1="389.54" y1="305.07" x2="389.36" y2="314.41" style="fill:none; stroke:#263238; stroke-miterlimit:10;"></line><line x1="472.51" y1="399.63" x2="248.62" y2="406.03" style="fill:none; stroke:#263238; stroke-miterlimit:10;"></line><path d="M238.19,331.25c1.65,22.82,6.47,85.16,6.47,85.16" style="fill:none; stroke:#263238; stroke-miterlimit:10;"></path><path d="M240.08,310.86s-2.44,9.46-2.44,12.2c0,.29,.08,1.55,.22,3.57" style="fill:none; stroke:#263238; stroke-miterlimit:10;"></path><path d="M78.41,323.89c-3.25,4.91-9.66,25.93-13.13,38.72,3.27-5.61,10.19-16.99,14.05-19.72,5.19-3.66,44.23-10.68,47.58-11.9,3.36-1.22,9.46-8.24,10.37-10.98,.78-2.35-45.41,2.43-58.88,3.88Z" style="fill:#263238; stroke:#263238; stroke-miterlimit:10;"></path><path d="M137.29,320.01c.78-2.35-45.41,2.43-58.88,3.88,0,0-5.17,15.65,.93,19,5.19-3.66,44.23-10.68,47.58-11.9,3.36-1.22,9.46-8.24,10.37-10.98Z" style="fill:#fff; stroke:#263238; stroke-miterlimit:10;"></path><path d="M77.2,361.8l.92,22.57h-4.27s-11.94-21.27-8.56-21.77,11.92-.8,11.92-.8Z" style="fill:#263238; stroke:#263238; stroke-miterlimit:10;"></path><path d="M519.18,252.3s61.61,41.79,64.66,41.79,88.31-3.15,88.31-3.15l-34.1-36.18-118.88-2.46Z" style="fill:#263238; stroke:#263238; stroke-miterlimit:10;"></path><path d="M541.14,259.32s36.91,29.28,43.31,30.2c6.41,.92,43.62-1.22,43.62-1.22,0,0-22.27-26.54-25.01-27.15-2.75-.61-61.92-1.83-61.92-1.83Z" style="fill:#525252; stroke:#263238; stroke-miterlimit:10;"></path><path d="M674.43,302.93s-47.28,1.53-47.28,2.75,4.88,7.32,8.24,8.85c3.36,1.53,8.54,.92,9.46,1.83,.92,.92,14.03,14.64,16.47,16.47,2.44,1.83,9.76,4.58,10.98,4.58,0,0,2.75-32.94,2.14-34.47Z" style="fill:#969696; stroke:#263238; stroke-miterlimit:10;"></path><g><circle cx="162.04" cy="409.64" r="50.38" style="fill:#263238; stroke:#263238; stroke-miterlimit:10;"></circle><path d="M162.04,372.29c-20.63,0-37.35,16.72-37.35,37.35s16.72,37.35,37.35,37.35,37.35-16.72,37.35-37.35-16.72-37.35-37.35-37.35Zm30.23,26.94l-24.73,6.78,13.48-22.1c5.16,3.81,9.12,9.14,11.25,15.32Zm-34.02,42.16c-6.58-.78-12.54-3.55-17.27-7.69l18.01-17.83-.74,25.52Zm6.74-25.41l19.57,16.34c-4.48,4.45-10.27,7.57-16.74,8.76l-2.83-25.1Zm5.3-37.23l-8.21,23.16-8.57-23.09c2.71-.75,5.57-1.16,8.52-1.16s5.62,.38,8.26,1.08Zm-27.47,5.33l13.14,20.85-23.46-7.55c2.21-5.3,5.79-9.89,10.32-13.29Zm-12.75,24.96l24.57,2.58-19.86,14.75c-2.99-4.87-4.72-10.6-4.72-16.73,0-.2,.01-.4,.02-.6Zm60.21,15.6l-20.78-12.86,24.48-3.11c0,.33,.02,.65,.02,.98,0,5.42-1.35,10.52-3.73,14.99Z" style="fill:#fff; stroke:#263238; stroke-miterlimit:10;"></path><circle cx="162.04" cy="409.64" r="9.88" style="fill:#fff; stroke:#263238; stroke-miterlimit:10;"></circle></g><g><circle cx="550.73" cy="409.64" r="50.38" style="fill:#263238; stroke:#263238; stroke-miterlimit:10;"></circle><path d="M550.73,372.29c-20.63,0-37.35,16.72-37.35,37.35s16.72,37.35,37.35,37.35,37.35-16.72,37.35-37.35-16.72-37.35-37.35-37.35Zm30.23,26.94l-24.73,6.78,13.48-22.1c5.16,3.81,9.12,9.14,11.25,15.32Zm-34.02,42.16c-6.58-.78-12.54-3.55-17.27-7.69l18.01-17.83-.74,25.52Zm6.74-25.41l19.57,16.34c-4.48,4.45-10.27,7.57-16.74,8.76l-2.83-25.1Zm5.3-37.23l-8.21,23.16-8.57-23.09c2.71-.75,5.57-1.16,8.52-1.16s5.62,.38,8.26,1.08Zm-27.47,5.33l13.14,20.85-23.46-7.55c2.21-5.3,5.79-9.89,10.32-13.29Zm-12.75,24.96l24.57,2.58-19.86,14.75c-2.99-4.87-4.72-10.6-4.72-16.73,0-.2,.01-.4,.02-.6Zm60.21,15.6l-20.78-12.86,24.48-3.11c0,.33,.02,.65,.02,.98,0,5.42-1.35,10.52-3.73,14.99Z" style="fill:#fff; stroke:#263238; stroke-miterlimit:10;"></path><circle cx="550.73" cy="409.64" r="9.88" style="fill:#fff; stroke:#263238; stroke-miterlimit:10;"></circle></g><path d="M364.05,236.81s13.97-3.97,20.59-5.23c6.62-1.26,102.08-1.89,141.14,0,39.07,1.89,55.13,5.36,58.6,6.3,3.47,.95,9.6,4.4,9.6,4.4l-30.75-1.37s.99-3.03-1.53-3.35c-2.52-.32-65.53-1.89-68.37-1.89s-2.94,3-2.94,3l-13.67-.13-5.13-3.5s-76.56-.63-78.45,.31c-1.89,.95-1.68,1.6-1.68,1.6l-27.41-.15Z" style="fill:#263238; stroke:#263238; stroke-miterlimit:10;"></path></g></g><g id="freepik--Floor--inject-2"><line x1="20.82" y1="460.02" x2="723.49" y2="460.02" style="fill:none; stroke:#263238; stroke-linecap:round; stroke-linejoin:round;"></line></g></svg>
